<svg xmlns="http://www.w3.org/2000/svg" viewBox="0 0 500 500" width="100%" height="100%">

  <path d="M 120 140 C 120 90 150 80 250 80 C 350 80 380 90 380 140 L 380 190 L 340 190 L 340 140 C 340 115 320 110 250 110 C 180 110 160 115 160 140 L 160 190 L 120 190 Z" fill="#ef4444"/>

  <path d="M 120 310 C 130 400 200 450 250 470 C 300 450 370 400 380 310 L 340 310 C 330 380 280 415 250 430 C 220 415 170 380 160 310 Z" fill="#ef4444"/>

  <g transform="translate(110, 160)">
    <path d="M 30 70 L 40 40 L 90 30 L 180 35 L 230 55 L 260 55 L 270 75 L 260 85 L 30 85 Z" fill="#ffffff"/>

    <path d="M 50 42 L 95 36 L 90 55 L 45 55 Z" fill="#18181b"/>
    <path d="M 105 36 L 170 40 L 165 55 L 100 55 Z" fill="#18181b"/>

    <rect x="215" y="60" width="4" height="15" fill="#ef4444" transform="skewX(-15)"/>
    <rect x="225" y="60" width="4" height="15" fill="#ef4444" transform="skewX(-15)"/>
    <rect x="235" y="60" width="4" height="15" fill="#ef4444" transform="skewX(-15)"/>
    <rect x="245" y="60" width="4" height="15" fill="#ef4444" transform="skewX(-15)"/>

    <path d="M 50 85 A 30 30 0 0 1 110 85" fill="#18181b"/>
    <path d="M 190 85 A 30 30 0 0 1 250 85" fill="#18181b"/>
  </g>

  <circle cx="190" cy="245" r="18" fill="#ffffff"/>
  <circle cx="190" cy="245" r="10" fill="#18181b"/>
  <circle cx="330" cy="245" r="18" fill="#ffffff"/>
  <circle cx="330" cy="245" r="10" fill="#18181b"/>

  <rect x="110" y="260" width="280" height="4" fill="#ef4444"/>
  <rect x="110" y="325" width="280" height="4" fill="#ef4444"/>

  <text x="250" y="300" font-family="system-ui, -apple-system, sans-serif" font-size="48" font-weight="900" fill="#ffffff" text-anchor="middle" letter-spacing="3">SEZAR</text>
  <text x="250" y="330" font-family="system-ui, -apple-system, sans-serif" font-size="22" font-weight="800" fill="#ffffff" text-anchor="middle" letter-spacing="6">DRIVE</text>
</svg>
