<svg width="512" height="512" viewBox="0 0 512 512" fill="none" xmlns="http://www.w3.org/2000/svg">
  <!-- Rounded square background with the blue gradient from sidebar -->
  <rect width="512" height="512" rx="120" fill="url(#brand_gradient)"/>
  
  <!-- Subtle inner glow to match premium UI -->
  <rect x="2" y="2" width="508" height="508" rx="118" stroke="white" stroke-opacity="0.1" stroke-width="4"/>

  <!-- Lucide Car Icon (White) -->
  <g transform="translate(106, 126) scale(12.5)" stroke="white" stroke-width="2" stroke-linecap="round" stroke-linejoin="round" fill="none">
    <path d="M19 17h2c.6 0 1-.4 1-1v-3c0-.9-.7-1.7-1.5-1.9C18.7 10.6 16 10 16 10s-1.3-1.4-2.2-2.3c-.5-.4-1.1-.7-1.8-.7H5c-.6 0-1.1.4-1.4.9l-1.4 2.9A3.7 3.7 0 0 0 2 12v4c0 .6.4 1 1 1h2" />
    <circle cx="7" cy="17" r="2" />
    <path d="M9 17h6" />
    <circle cx="17" cy="17" r="2" />
  </g>

  <defs>
    <!-- Gradient from index.css: --color-primary to --color-primary-dark -->
    <linearGradient id="brand_gradient" x1="0" y1="0" x2="512" y2="512" gradientUnits="userSpaceOnUse">
      <stop stop-color="#3b82f6"/>
      <stop offset="1" stop-color="#2563eb"/>
    </linearGradient>
  </defs>
</svg>
